HIERARCHY
ROOT hip
{
	OFFSET 0.000000 0.000000 0.000000 
	CHANNELS 6 Xposition Yposition Zposition Xrotation Zrotation Yrotation
	JOINT abdomen
	{
		OFFSET 0.000000 3.402643 0.000000 
		CHANNELS 3 Xrotation Zrotation Yrotation
		JOINT chest
		{
			OFFSET 0.000000 8.438565 -0.680529 
			CHANNELS 3 Xrotation Zrotation Yrotation
			JOINT neck
			{
				OFFSET 0.000000 10.207942 -0.272212 
				CHANNELS 3 Xrotation Zrotation Yrotation
				JOINT head
				{
					OFFSET 0.000000 3.130431 0.000000 
					CHANNELS 3 Xrotation Zrotation Yrotation
					End Site
					{
						OFFSET 0.000000 3.130435 0.000000 
					}
				}
			}
			JOINT lCollar
			{
				OFFSET 3.470700 6.669187 -0.816635 
				CHANNELS 3 Yrotation Zrotation Xrotation
				JOINT lShldr
				{
					OFFSET 3.198488 0.000000 0.000000 
					CHANNELS 3 Zrotation Yrotation Xrotation
					JOINT lForeArm
					{
						OFFSET 10.139888 0.000000 0.000000 
						CHANNELS 3 Yrotation Zrotation Xrotation
						JOINT lHand
						{
							OFFSET 8.370511 0.000000 0.000000 
							CHANNELS 3 Zrotation Yrotation Xrotation
							End Site
							{
								OFFSET 4.083176 0.000000 0.000000 
							}
						}
					}
				}
			}
			JOINT rCollar
			{
				OFFSET -3.470700 6.669187 -0.816635 
				CHANNELS 3 Yrotation Zrotation Xrotation
				JOINT rShldr
				{
					OFFSET -3.198488 0.000000 0.000000 
					CHANNELS 3 Zrotation Yrotation Xrotation
					JOINT rForeArm
					{
						OFFSET -10.139888 0.000000 0.000000 
						CHANNELS 3 Yrotation Zrotation Xrotation
						JOINT rHand
						{
							OFFSET -8.370511 0.000000 0.000000 
							CHANNELS 3 Zrotation Yrotation Xrotation
							End Site
							{
								OFFSET -4.083176 0.000000 0.000000 
							}
						}
					}
				}
			}
		}
	}
	JOINT lThigh
	{
		OFFSET 5.308129 -1.633274 1.361059 
		CHANNELS 3 Xrotation Zrotation Yrotation
		JOINT lShin
		{
			OFFSET -2.041588 -20.007561 0.000000 
			CHANNELS 3 Xrotation Zrotation Yrotation
			JOINT lFoot
			{
				OFFSET 0.000000 -19.190928 -1.224953 
				CHANNELS 3 Xrotation Yrotation Zrotation
				End Site
				{
					OFFSET 0.000000 -2.449906 4.627600 
				}
			}
		}
	}
	JOINT rThigh
	{
		OFFSET -5.308129 -1.633274 1.361059 
		CHANNELS 3 Xrotation Zrotation Yrotation
		JOINT rShin
		{
			OFFSET 2.041588 -20.007561 0.000000 
			CHANNELS 3 Xrotation Zrotation Yrotation
			JOINT rFoot
			{
				OFFSET 0.000000 -19.190928 -1.224953 
				CHANNELS 3 Xrotation Yrotation Zrotation
				End Site
				{
					OFFSET 0.000000 -2.449906 4.627600 
				}
			}
		}
	}
}
MOTION
Frames: 20
Frame Time: 0.033333
1.858324 48.536716 -2.691657 0.000000 0.000000 -0.175781 0.000000 0.000000 0.000000 2.275391 -0.175781 -0.019561 -9.658202 1.826172 3.965134 7.011719 -1.240234 4.765626 -2.861328 9.736329 0.478516 -9.550781 2.333984 -17.187500 3.125000 -1.455078 2.461186 -3.066406 -2.441406 12.598121 2.851563 -9.931642 0.509497 4.785156 5.625000 -30.419924 -3.144531 1.259766 2.431640 1.748047 -2.392578 24.276937 -7.877384 7.436780 10.060107 22.971819 -3.456029 14.350547 -13.105930 0.527972 -6.431452 -7.722066 -9.975545 -10.268209 23.420891 3.290114 2.356512 -14.628937 0.243121 3.884174 
1.866251 48.546783 -2.689139 0.000000 0.000000 0.000000 0.000000 0.000000 0.000000 2.275391 -0.175781 -0.019561 -9.658202 1.650391 3.994422 6.835937 -1.240234 4.775391 -2.861328 9.736329 0.478516 -9.550781 2.333984 -17.187500 3.125000 -1.455078 2.461186 -2.890625 -2.441406 12.763671 2.851563 -9.931642 0.509497 4.785156 5.449142 -30.408886 -3.144531 1.259766 2.431640 1.728516 -2.226563 24.277346 -7.729360 7.307755 10.069439 22.632700 -3.369263 14.235641 -12.955290 0.344064 -6.097821 -7.722066 -9.975546 -10.268209 23.236355 3.299953 2.510899 -14.650363 0.056198 3.960404 
1.870531 48.532566 -2.687125 0.000000 0.000000 0.000000 0.000000 0.000000 0.000000 2.275391 -0.175781 -0.019561 -9.658203 1.621094 3.818359 6.835937 -1.240234 4.589844 -2.861328 9.736329 0.478516 -9.550781 2.333984 -17.011719 3.125000 -1.455078 2.461186 -2.890625 -2.441406 12.412109 2.851563 -9.931642 0.509497 4.804688 5.449219 -30.585007 -3.144531 1.259766 2.431640 1.728516 -2.226563 24.277346 -7.827900 7.211389 10.216740 23.158934 -3.290806 14.222584 -13.463568 0.538274 -6.410499 -7.722066 -9.975545 -10.268209 23.420891 3.290113 2.356511 -14.618806 0.245728 3.885353 
1.875313 48.531803 -2.682344 0.000000 0.000000 0.000000 0.000000 0.000000 0.000000 2.275391 -0.175781 -0.019561 -9.658203 1.621094 3.818359 6.660156 -1.416016 4.599609 -2.861328 9.736329 0.478516 -9.550781 2.333984 -17.011719 3.125000 -1.455078 2.461186 -2.705078 -2.421875 12.041016 2.851563 -9.931642 0.509497 4.804688 5.449219 -30.760788 -3.144531 1.259766 2.431640 1.728516 -2.226563 24.101564 -7.827900 7.211387 10.216739 23.158934 -3.290804 14.222583 -13.433729 0.202242 -6.409605 -7.701025 -9.767848 -10.268117 23.263559 3.133770 2.316597 -14.649339 -0.042056 4.116598 
1.879339 48.533443 -2.672779 0.000000 0.000000 0.000000 0.000000 0.000000 0.000000 2.275391 -0.175781 -0.019561 -9.658203 1.621094 3.818359 6.660156 -1.416016 4.599609 -2.861328 9.736329 0.478516 -9.726563 2.333984 -17.021088 3.125000 -1.455078 2.461186 -2.705078 -2.421875 11.875000 2.851563 -9.931642 0.509497 4.804688 5.625000 -30.936543 -3.144531 1.259766 2.431640 1.708984 -2.041016 24.287109 -7.827901 7.211388 10.216740 22.792677 -3.288692 14.219719 -13.080397 0.553386 -6.417879 -7.701025 -9.767848 -10.268117 23.263559 3.133770 2.316597 -14.649339 -0.042056 4.116598 
1.881227 48.534702 -2.664348 0.000000 0.000000 0.000000 0.000000 0.000000 0.000000 2.275391 -0.175781 -0.019561 -9.658202 1.445313 3.847903 6.660156 -1.416016 4.599609 -2.861328 9.570313 0.458972 -9.716796 2.509766 -16.855040 3.125000 -1.455078 2.461186 -2.705078 -2.597656 11.875000 2.851563 -10.097656 0.519290 4.970703 5.625000 -31.132813 -3.144531 1.259766 2.431640 1.523438 -1.708984 24.443068 -7.827900 7.211389 10.216740 22.792681 -3.288692 14.219720 -13.056213 0.237769 -6.372691 -7.722066 -9.975546 -10.268209 23.451019 3.134041 2.319479 -14.798129 0.212287 4.057072 
1.882233 48.520233 -2.654407 0.000000 0.000000 -0.175781 0.000000 0.000000 0.000000 2.275391 -0.361328 -0.019593 -9.658202 1.445313 3.847903 6.660156 -1.240234 4.589844 -2.861328 9.570313 0.458972 -9.716796 2.509766 -16.679258 3.125000 -1.455078 2.461186 -2.705078 -2.421875 11.875000 2.851563 -10.097656 0.519290 4.804688 5.625000 -31.112324 -3.144531 1.259766 2.431640 1.679688 -1.533203 24.287109 -7.827901 7.211388 10.216740 23.155678 -3.289369 14.378665 -13.448033 0.551288 -6.611071 -7.722065 -9.975547 -10.268209 23.451019 3.134039 2.319479 -14.810777 0.005087 4.144112 
1.869524 48.504627 -2.659441 0.351563 0.000000 -0.195313 0.000000 0.000000 0.000000 1.933594 -0.175781 -0.019531 -9.658203 1.621094 3.818359 6.660156 -1.240234 4.589844 -2.861328 9.736329 0.478516 -9.521484 3.232422 -15.438902 3.125000 -1.455078 2.461186 -3.056641 -2.626953 10.673829 2.851563 -9.931642 0.509497 4.804688 5.791016 -31.288082 -3.144531 1.259766 2.431640 1.523438 -1.708984 24.443068 -8.279202 7.507146 10.060399 23.365673 -3.369422 14.709492 -13.588302 0.168708 -6.616045 -8.046120 -9.734926 -10.085490 23.619280 3.124501 2.338648 -14.810693 0.002254 3.977804 
1.868516 48.505882 -2.652267 0.351563 0.000000 -0.195313 0.000000 0.000000 0.000000 2.109375 -0.175780 -0.019561 -9.658203 1.621094 3.818359 6.484375 -1.240234 4.433594 -2.861328 9.736329 0.478516 -9.697266 3.232422 -15.449219 3.125000 -1.455078 2.461186 -3.066406 -2.441406 10.488281 2.851563 -9.931642 0.509497 4.804688 5.625000 -31.112324 -3.144531 1.259766 2.431640 1.699219 -1.689453 24.101274 -8.279201 7.507146 10.060399 23.365673 -3.369422 14.709492 -13.588303 0.168709 -6.616045 -8.046120 -9.734922 -10.085491 23.619280 3.124504 2.338648 -14.988097 -0.001144 3.967527 
1.849011 48.476059 -2.648366 0.527344 0.000000 -0.371094 0.000000 0.000000 0.000000 1.933594 -0.175781 -0.019531 -9.658203 1.621094 3.818359 6.660156 -1.240234 4.423828 -2.861328 9.736329 0.478516 -9.335938 3.593750 -14.559933 3.125000 -1.455078 2.461186 -3.408203 -2.646484 9.989784 2.851563 -9.931642 0.509497 4.804688 6.162109 -31.805588 -3.144531 1.259766 2.431640 1.367187 -2.080078 24.619141 -8.374587 7.416469 10.060513 23.540880 -3.320433 14.706396 -13.743409 0.183764 -6.775616 -8.571277 -9.770586 -9.898103 24.142006 3.114177 2.381907 -15.160889 0.038595 3.980373 
1.824220 48.467880 -2.639306 0.527344 0.000000 -0.546876 0.000000 0.000000 0.000000 1.933594 -0.175781 -0.019531 -9.658203 1.621094 3.818359 6.660156 -1.416016 4.599609 -2.861328 9.736329 0.478516 -9.326172 3.759766 -14.374357 3.125000 -1.455078 2.461186 -3.398438 -2.822266 9.804688 2.851563 -9.931642 0.509497 4.804688 5.986328 -31.473591 -3.144531 1.259766 2.431640 1.542969 -2.050772 24.267132 -8.374588 7.416464 10.060514 23.540880 -3.320434 14.706396 -13.734729 0.190275 -6.772020 -8.784411 -9.816759 -9.893155 24.319832 3.114430 2.374412 -15.170507 0.128348 4.028911 
1.797290 48.453785 -2.607593 0.351563 0.156250 -0.527318 0.000000 0.000000 0.000000 2.109375 -0.361326 -0.029359 -9.658202 1.445313 3.847903 6.660156 -1.582031 4.785156 -2.861328 9.570313 0.458972 -9.345703 3.593750 -14.902343 3.125000 -1.455078 2.461186 -3.242188 -2.460961 10.146162 2.851563 -10.097656 0.519290 4.804688 5.976563 -31.288044 -3.144531 1.259766 2.431640 1.562500 -2.236328 24.101563 -8.257168 7.308787 9.884472 23.537945 -3.367899 15.038157 -13.603238 0.368248 -6.731185 -8.934458 -10.164132 -9.710932 24.630934 3.289990 2.780400 -15.193411 0.107902 3.644268 
1.752616 48.449757 -2.562918 0.166016 0.341797 -0.878905 0.000000 0.000000 0.000000 2.275391 -0.537109 -0.039154 -9.658202 1.484375 4.023691 6.660156 -1.582031 4.785156 -2.861328 9.570313 0.458972 -9.521484 3.398438 -15.790436 3.125000 -1.455078 2.461186 -3.085938 -2.099609 11.025391 2.851563 -10.097656 0.519290 4.619141 6.152344 -31.103518 -3.144531 1.259766 2.431640 1.406250 -2.597656 24.247604 -7.926152 7.163511 9.688157 23.530672 -3.486262 15.035412 -13.586720 0.354228 -6.891114 -8.610688 -10.171242 -10.247590 24.836521 3.114522 3.109436 -15.733471 -0.111296 3.521157 
1.679752 48.445984 -2.521768 0.166016 0.166016 -0.878906 0.000000 0.000000 0.000000 2.275391 -0.361328 -0.019593 -9.658202 1.679688 4.160442 6.660156 -1.767578 4.960938 -2.861328 9.570313 0.458972 -9.345702 3.398438 -15.780670 3.125000 -1.455078 2.461186 -3.251953 -2.285156 11.210938 2.851563 -10.097656 0.519290 4.267578 5.605469 -30.038107 -3.144531 1.259766 2.431640 1.914063 -2.392578 23.407797 -7.733017 7.341945 9.893670 23.353857 -3.358894 14.868099 -13.738069 0.177499 -6.822584 -8.807443 -10.017653 -9.901466 25.013273 3.114430 3.131033 -15.548634 -0.125056 3.720814 
1.626772 48.435032 -2.454065 0.166016 0.341797 -0.878905 0.000000 0.000000 0.000000 2.275391 -0.537109 -0.039154 -9.658202 1.699219 4.345993 6.660156 -1.943359 5.146484 -2.861328 9.570313 0.458972 -9.365235 3.398438 -16.142576 3.125000 -1.455078 2.461186 -3.251953 -2.285156 11.552734 2.851563 -10.097656 0.519290 4.277344 5.439454 -30.565483 -3.144531 1.259766 2.431640 1.572266 -2.412109 23.740231 -7.729989 7.142822 9.501168 23.360029 -3.400345 14.917712 -13.742064 0.236702 -6.966726 -8.610688 -10.171242 -10.247589 25.179382 3.124285 3.144263 -15.908753 -0.100971 3.528889 
1.526601 48.361168 -2.372895 0.166016 0.341797 -0.527343 0.000000 0.000000 0.000000 2.109375 -0.361326 -0.029359 -9.658202 1.679688 4.160442 6.494141 -1.943359 4.980469 -2.861328 9.570313 0.458972 -9.345703 3.232422 -15.429686 3.125000 -1.455078 2.461186 -3.408203 -2.470703 11.210438 2.851563 -10.097656 0.519290 4.101563 4.726563 -30.390623 -3.144531 1.259766 2.431640 1.386719 -2.236328 23.554306 -8.193508 7.412270 9.854053 24.437368 -3.329983 14.133248 -14.101896 0.262887 -7.169077 -8.931109 -9.944229 -9.712518 25.741280 3.134516 2.834275 -16.271761 -0.106113 3.519244 
1.437001 48.254704 -2.333507 0.351563 0.341797 -0.175723 0.000000 0.000000 0.000000 2.109375 -0.537109 -0.039154 -9.658202 1.650391 3.994422 6.142578 -2.285156 5.175392 -2.861328 9.570313 0.458972 -9.355469 3.046875 -15.605470 3.125000 -1.455078 2.461186 -3.066406 -2.441406 10.664063 2.851563 -10.097656 0.519290 3.916016 3.857422 -30.214844 -3.144531 1.259766 2.431640 1.181641 -1.914063 22.831703 -8.716317 7.572765 9.873549 25.284472 -3.299300 13.698633 -14.637184 0.609226 -7.392040 -9.655456 -10.025362 -9.333665 27.019016 2.968278 1.990618 -16.944632 0.155637 3.651308 
1.304614 48.173786 -2.270082 0.703125 0.166016 -0.175781 0.000000 0.000000 0.000000 2.109375 -0.361326 -0.029359 -9.658202 1.699219 4.345993 6.142578 -1.943359 5.331700 -2.861328 9.570313 0.458972 -9.697266 3.232422 -15.634768 3.125000 -1.455078 2.461186 -3.007812 -3.330078 9.960371 2.851563 -10.097656 0.519290 3.750000 2.978516 -29.687496 -3.144531 1.259766 2.431640 1.308594 -1.191406 22.324219 -9.497173 8.031434 9.856685 26.177380 -3.242601 13.861922 -15.280334 0.483563 -7.637834 -10.116683 -9.413424 -8.641361 27.732779 3.164021 1.616352 -17.511280 -0.383727 3.165767 
1.180659 48.031963 -2.135430 0.703125 0.341797 0.341797 0.000000 0.000000 0.000000 1.933594 -0.361328 -0.019593 -9.658202 1.679688 4.160442 6.142578 -1.767578 4.980167 -2.861328 9.570313 0.458972 -10.078124 3.398438 -16.513092 3.125000 -1.455078 2.461186 -2.421875 -4.355469 10.791017 2.851563 -10.097656 0.519290 4.462891 1.386719 -30.263433 -3.144531 1.259766 2.431640 0.869141 0.371094 22.490255 -10.398988 8.406656 9.286955 27.929054 -3.352577 13.525517 -15.912647 0.282063 -8.180761 -10.731324 -9.490875 -8.972303 28.996990 2.958493 1.470430 -18.555882 -0.185602 3.522192 
1.038960 47.881077 -2.029847 0.869141 0.341797 0.517636 0.000000 0.000000 0.000000 1.933594 -0.361328 -0.019593 -9.658202 1.650391 3.994422 6.308593 -2.285156 4.990233 -2.861328 9.570313 0.458972 -11.152345 4.267578 -17.275391 0.664063 -1.416016 2.451413 -2.080078 -4.326172 10.780515 2.851563 -10.097656 0.519290 4.462891 0.351563 -30.625000 -3.144531 1.259766 2.431640 0.478516 1.220703 22.812710 -11.182183 8.496746 9.659058 29.355778 -3.183282 12.751586 -16.870537 0.633106 -8.209856 -11.227017 -9.468778 -8.788078 30.047335 3.129822 1.408913 -19.270449 -0.395748 3.183627 
